<svg width="200" height="48" viewBox="0 0 200 48" fill="none" xmlns="http://www.w3.org/2000/svg">
<path d="M67.7315 12.0611C67.9362 12.5518 67.9976 13.0706 67.9157 13.6174C67.8338 14.1502 67.6154 14.6058 67.2605 14.9844L49.693 35.1113H67.6905V40.5794H43.6938C43.1751 40.5794 42.6905 40.4322 42.2401 40.1377C41.8033 39.8293 41.4757 39.4297 41.2573 38.9389C41.0252 38.4482 40.9501 37.9365 41.032 37.4037C41.1276 36.8709 41.346 36.4082 41.6872 36.0156L59.2958 15.8887H41.2573V10.4206H65.2949C65.8136 10.4206 66.2914 10.5749 66.7282 10.8833C67.1786 11.1777 67.5131 11.5703 67.7315 12.0611Z" fill="black"/>
<path d="M100.512 20.5156C100.512 21.7635 100.355 22.8781 100.041 23.8596C99.7407 24.841 99.338 25.7103 98.833 26.4674C98.3279 27.2105 97.7342 27.8485 97.0517 28.3813C96.3828 28.9141 95.6867 29.3557 94.9632 29.7062C94.2398 30.0427 93.5027 30.2881 92.7519 30.4423C92.0148 30.5966 91.3187 30.6737 90.6635 30.6737H88.5136V40.5794H83.1491V30.6737H81.0197C80.3645 30.6737 79.6616 30.5966 78.9108 30.4423C78.1737 30.2881 77.4366 30.0427 76.6995 29.7062C75.9761 29.3557 75.2799 28.9141 74.6111 28.3813C73.9422 27.8485 73.3484 27.2105 72.8297 26.4674C72.3247 25.7103 71.9152 24.841 71.6012 23.8596C71.3009 22.8641 71.1508 21.7494 71.1508 20.5156V10.4206H76.4743V20.5156C76.4743 21.2307 76.5835 21.8756 76.8019 22.4505C77.0203 23.0113 77.3274 23.495 77.7233 23.9016C78.1191 24.3082 78.5969 24.6237 79.1565 24.848C79.7298 25.0583 80.3645 25.1635 81.0607 25.1635H90.6635C91.1685 25.0794 91.6872 24.9742 92.2196 24.848C92.7519 24.7078 93.2365 24.4765 93.6733 24.154C94.1101 23.8315 94.4718 23.3829 94.7585 22.808C95.0451 22.2332 95.1884 21.469 95.1884 20.5156V10.4206H100.512V20.5156Z" fill="black"/>
<path d="M134.562 23.0393C134.562 24.2872 134.412 25.4019 134.111 26.3833C133.811 27.3648 133.402 28.2341 132.883 28.9912C132.378 29.7343 131.791 30.3722 131.122 30.905C130.453 31.4378 129.75 31.8725 129.013 32.209C128.29 32.5455 127.553 32.7908 126.802 32.945C126.065 33.0993 125.369 33.1764 124.713 33.1764H112.674V27.7083H124.713C125.396 27.6522 126.01 27.512 126.556 27.2877C127.116 27.0493 127.594 26.7338 127.989 26.3412C128.385 25.9487 128.692 25.479 128.911 24.9322C129.129 24.3713 129.238 23.7404 129.238 23.0393V20.5577C129.17 19.8706 129.027 19.2397 128.808 18.6649C128.59 18.09 128.29 17.5993 127.908 17.1927C127.539 16.7861 127.089 16.4706 126.556 16.2463C126.024 16.0079 125.41 15.8887 124.713 15.8887H112.715C112.005 15.8887 111.466 16.078 111.098 16.4566C110.729 16.8351 110.545 17.382 110.545 18.097V40.5794H105.221V18.097C105.221 16.6949 105.467 15.5032 105.958 14.5217C106.463 13.5403 107.084 12.7481 107.822 12.1452C108.572 11.5423 109.384 11.1076 110.258 10.8412C111.132 10.5608 111.937 10.4206 112.674 10.4206H124.713C125.915 10.4206 126.993 10.5819 127.948 10.9043C128.904 11.2128 129.743 11.6334 130.467 12.1662C131.204 12.685 131.825 13.2879 132.33 13.9749C132.849 14.6619 133.272 15.384 133.6 16.1411C133.941 16.8842 134.187 17.6413 134.337 18.4125C134.487 19.1696 134.562 19.8847 134.562 20.5577V23.0393Z" fill="black"/>
<path d="M165.663 15.8887H153.931V40.5794H148.608V15.8887H136.855V10.4206H165.663V15.8887Z" fill="black"/>
<path d="M200 28.3813C200 30.218 199.693 31.9075 199.079 33.4498C198.464 34.9921 197.611 36.3241 196.519 37.4457C195.427 38.5674 194.13 39.4437 192.629 40.0746C191.141 40.6915 189.517 41 187.756 41H180.549C178.788 41 177.157 40.6915 175.655 40.0746C174.154 39.4437 172.857 38.5674 171.765 37.4457C170.673 36.3241 169.813 34.9921 169.185 33.4498C168.571 31.9075 168.264 30.218 168.264 28.3813V22.6187C168.264 20.796 168.571 19.1135 169.185 17.5712C169.813 16.0149 170.673 14.6829 171.765 13.5753C172.857 12.4536 174.154 11.5773 175.655 10.9464C177.157 10.3155 178.788 10 180.549 10H187.756C189.517 10 191.141 10.3155 192.629 10.9464C194.13 11.5773 195.427 12.4536 196.519 13.5753C197.611 14.6829 198.464 16.0149 199.079 17.5712C199.693 19.1135 200 20.796 200 22.6187V28.3813ZM194.676 22.6187C194.676 21.5391 194.506 20.5647 194.165 19.6954C193.837 18.8121 193.366 18.062 192.752 17.445C192.151 16.8141 191.421 16.3304 190.561 15.9939C189.715 15.6434 188.78 15.4681 187.756 15.4681H180.549C179.511 15.4681 178.563 15.6434 177.703 15.9939C176.856 16.3304 176.126 16.8141 175.512 17.445C174.898 18.062 174.42 18.8121 174.079 19.6954C173.751 20.5647 173.587 21.5391 173.587 22.6187V28.3813C173.587 29.4609 173.751 30.4423 174.079 31.3256C174.42 32.1949 174.898 32.945 175.512 33.576C176.126 34.1929 176.856 34.6766 177.703 35.0271C178.563 35.3636 179.511 35.5319 180.549 35.5319H187.715C188.752 35.5319 189.694 35.3636 190.541 35.0271C191.4 34.6766 192.138 34.1929 192.752 33.576C193.366 32.945 193.837 32.1949 194.165 31.3256C194.506 30.4423 194.676 29.4609 194.676 28.3813V22.6187Z" fill="black"/>
<path d="M200 25.8551C200 34.2609 197.641 36 188.5 36C179.359 36 177 32.7386 177 25.8551C177 16 181.497 16 188.5 16C197.346 16 200 18.9715 200 25.8551Z" fill="#07EEE0" fill-opacity="0.37"/>
<circle cx="20.5" cy="25.5" r="12.5" fill="#07EEE0"/>
<path d="M21.2394 47.1878C20.8428 47.6235 20.1572 47.6235 19.7606 47.1878L4.26984 30.1732C3.68516 29.531 4.14079 28.5 5.00928 28.5L35.9907 28.5C36.8592 28.5 37.3148 29.531 36.7302 30.1732L21.2394 47.1878Z" fill="#F4F1F1"/>
<path d="M19.7253 0.949078C20.1254 0.458869 20.8746 0.458869 21.2747 0.949078L36.9211 20.1177C37.4542 20.7708 36.9895 21.75 36.1464 21.75H4.85357C4.01048 21.75 3.54577 20.7708 4.07888 20.1177L19.7253 0.949078Z" fill="#F4F1F1"/>
</svg>
