<svg width="210" height="48" viewBox="0 0 210 48" fill="none" xmlns="http://www.w3.org/2000/svg">
<path d="M77.7315 12.0611C77.9362 12.5518 77.9976 13.0706 77.9157 13.6174C77.8338 14.1502 77.6154 14.6058 77.2605 14.9844L59.693 35.1113H77.6905V40.5794H53.6938C53.1751 40.5794 52.6905 40.4322 52.2401 40.1377C51.8033 39.8293 51.4757 39.4297 51.2573 38.9389C51.0252 38.4482 50.9501 37.9365 51.032 37.4037C51.1276 36.8709 51.346 36.4082 51.6872 36.0156L69.2958 15.8887H51.2573V10.4206H75.2949C75.8136 10.4206 76.2914 10.5749 76.7282 10.8833C77.1786 11.1777 77.5131 11.5703 77.7315 12.0611Z" fill="#F4F1F1"/>
<path d="M110.512 20.5156C110.512 21.7635 110.355 22.8781 110.041 23.8596C109.741 24.841 109.338 25.7103 108.833 26.4674C108.328 27.2105 107.734 27.8485 107.052 28.3813C106.383 28.9141 105.687 29.3557 104.963 29.7062C104.24 30.0427 103.503 30.2881 102.752 30.4423C102.015 30.5966 101.319 30.6737 100.663 30.6737H98.5136V40.5794H93.1491V30.6737H91.0197C90.3645 30.6737 89.6616 30.5966 88.9108 30.4423C88.1737 30.2881 87.4366 30.0427 86.6995 29.7062C85.9761 29.3557 85.2799 28.9141 84.6111 28.3813C83.9422 27.8485 83.3484 27.2105 82.8297 26.4674C82.3247 25.7103 81.9152 24.841 81.6012 23.8596C81.3009 22.8641 81.1508 21.7494 81.1508 20.5156V10.4206H86.4743V20.5156C86.4743 21.2307 86.5835 21.8756 86.8019 22.4505C87.0203 23.0113 87.3274 23.495 87.7233 23.9016C88.1191 24.3082 88.5969 24.6237 89.1565 24.848C89.7298 25.0583 90.3645 25.1635 91.0607 25.1635H100.663C101.169 25.0794 101.687 24.9742 102.22 24.848C102.752 24.7078 103.236 24.4765 103.673 24.154C104.11 23.8315 104.472 23.3829 104.758 22.808C105.045 22.2332 105.188 21.469 105.188 20.5156V10.4206H110.512V20.5156Z" fill="#F4F1F1"/>
<path d="M144.562 23.0393C144.562 24.2872 144.412 25.4019 144.111 26.3833C143.811 27.3648 143.402 28.2341 142.883 28.9912C142.378 29.7343 141.791 30.3722 141.122 30.905C140.453 31.4378 139.75 31.8725 139.013 32.209C138.29 32.5455 137.553 32.7908 136.802 32.945C136.065 33.0993 135.369 33.1764 134.713 33.1764H122.674V27.7083H134.713C135.396 27.6522 136.01 27.512 136.556 27.2877C137.116 27.0493 137.594 26.7338 137.989 26.3412C138.385 25.9487 138.692 25.479 138.911 24.9322C139.129 24.3713 139.238 23.7404 139.238 23.0393V20.5577C139.17 19.8706 139.027 19.2397 138.808 18.6649C138.59 18.09 138.29 17.5993 137.908 17.1927C137.539 16.7861 137.089 16.4706 136.556 16.2463C136.024 16.0079 135.41 15.8887 134.713 15.8887H122.715C122.005 15.8887 121.466 16.078 121.098 16.4566C120.729 16.8351 120.545 17.382 120.545 18.097V40.5794H115.221V18.097C115.221 16.6949 115.467 15.5032 115.958 14.5217C116.463 13.5403 117.084 12.7481 117.822 12.1452C118.572 11.5423 119.384 11.1076 120.258 10.8412C121.132 10.5608 121.937 10.4206 122.674 10.4206H134.713C135.915 10.4206 136.993 10.5819 137.948 10.9043C138.904 11.2128 139.743 11.6334 140.467 12.1662C141.204 12.685 141.825 13.2879 142.33 13.9749C142.849 14.6619 143.272 15.384 143.6 16.1411C143.941 16.8842 144.187 17.6413 144.337 18.4125C144.487 19.1696 144.562 19.8847 144.562 20.5577V23.0393Z" fill="#F4F1F1"/>
<path d="M175.663 15.8887H163.931V40.5794H158.608V15.8887H146.855V10.4206H175.663V15.8887Z" fill="#F4F1F1"/>
<path d="M210 28.3813C210 30.218 209.693 31.9075 209.079 33.4498C208.464 34.9921 207.611 36.3241 206.519 37.4457C205.427 38.5674 204.13 39.4437 202.629 40.0746C201.141 40.6915 199.517 41 197.756 41H190.549C188.788 41 187.157 40.6915 185.655 40.0746C184.154 39.4437 182.857 38.5674 181.765 37.4457C180.673 36.3241 179.813 34.9921 179.185 33.4498C178.571 31.9075 178.264 30.218 178.264 28.3813V22.6187C178.264 20.796 178.571 19.1135 179.185 17.5712C179.813 16.0149 180.673 14.6829 181.765 13.5753C182.857 12.4536 184.154 11.5773 185.655 10.9464C187.157 10.3155 188.788 10 190.549 10H197.756C199.517 10 201.141 10.3155 202.629 10.9464C204.13 11.5773 205.427 12.4536 206.519 13.5753C207.611 14.6829 208.464 16.0149 209.079 17.5712C209.693 19.1135 210 20.796 210 22.6187V28.3813ZM204.676 22.6187C204.676 21.5391 204.506 20.5647 204.165 19.6954C203.837 18.8121 203.366 18.062 202.752 17.445C202.151 16.8141 201.421 16.3304 200.561 15.9939C199.715 15.6434 198.78 15.4681 197.756 15.4681H190.549C189.511 15.4681 188.563 15.6434 187.703 15.9939C186.856 16.3304 186.126 16.8141 185.512 17.445C184.898 18.062 184.42 18.8121 184.079 19.6954C183.751 20.5647 183.587 21.5391 183.587 22.6187V28.3813C183.587 29.4609 183.751 30.4423 184.079 31.3256C184.42 32.1949 184.898 32.945 185.512 33.576C186.126 34.1929 186.856 34.6766 187.703 35.0271C188.563 35.3636 189.511 35.5319 190.549 35.5319H197.715C198.752 35.5319 199.694 35.3636 200.541 35.0271C201.4 34.6766 202.138 34.1929 202.752 33.576C203.366 32.945 203.837 32.1949 204.165 31.3256C204.506 30.4423 204.676 29.4609 204.676 28.3813V22.6187Z" fill="#F4F1F1"/>
<path d="M210 25.8551C210 34.2609 207.641 36 198.5 36C189.359 36 187 32.7386 187 25.8551C187 16 191.497 16 198.5 16C207.346 16 210 18.9715 210 25.8551Z" fill="#07EEE0" fill-opacity="0.37"/>
<circle cx="20.5" cy="25.5" r="12.5" fill="#07EEE0"/>
<path d="M21.2394 47.1878C20.8428 47.6235 20.1572 47.6235 19.7606 47.1878L4.26984 30.1732C3.68516 29.531 4.14079 28.5 5.00928 28.5L35.9907 28.5C36.8592 28.5 37.3148 29.531 36.7302 30.1732L21.2394 47.1878Z" fill="#F4F1F1"/>
<path d="M19.7253 0.949078C20.1254 0.458869 20.8746 0.458869 21.2747 0.949078L36.9211 20.1177C37.4542 20.7708 36.9895 21.75 36.1464 21.75H4.85357C4.01048 21.75 3.54577 20.7708 4.07888 20.1177L19.7253 0.949078Z" fill="#F4F1F1"/>
</svg>
